
<svg width="512" height="512" viewBox="0 0 512 512" fill="none" xmlns="http://www.w3.org/2000/svg">
<path d="M95.7864 231.276C105.654 222.777 114.012 212.949 125.231 205.867C120.737 219.598 101.568 222.922 95.755 236.132C125.953 233.039 159.609 234.542 184.339 252.695C195.841 263.015 198.857 284.318 183.648 293.048C160.96 308.831 138.806 328.284 110.336 334.181C85.7936 334.644 73.7267 311.461 65.5251 293.713C72.0298 288.452 81.3314 289.782 89.2188 288.047C83.5939 282.15 74.6695 280.561 68.1961 275.618C65.965 272.64 63.5139 269.807 61 267.061C66.9077 251.279 81.3314 240.381 95.7864 231.276Z" fill="black"/>
<path d="M62.9169 358.809C69.2645 359.445 75.5179 361.15 81.9284 361.035C90.5386 360.139 98.5203 356.236 107.225 356.005C132.207 358.26 154.424 369.533 177.709 377.135C192.824 382.281 206.933 390.837 223.494 391.473C255.043 395.404 285.21 382.57 316.446 382.223C314.058 385.894 311.104 389.334 306.767 391.126C281 403.238 251.87 406.504 223.462 409.25C206.745 410.811 189.776 407.545 174.912 400.434C146.756 391.328 120.549 377.222 91.1985 371.21C81.0171 369.042 69.6102 366.989 62.9169 358.809Z" fill="black"/>
<path d="M212.191 180.037L120.982 163.199L117.533 181.883L208.741 198.722L212.191 180.037Z" fill="black"/>
<path d="M229.435 165.425L110.093 143.393L106.462 163.06L225.804 185.093L229.435 165.425Z" fill="black"/>
<path d="M247.405 151.964L98.1135 124.402L94.4825 144.07L243.774 171.632L247.405 151.964Z" fill="black"/>
<path d="M272.213 136.206L86.77 101.97L82.6852 124.096L268.128 158.332L272.213 136.206Z" fill="black"/>
<path d="M234.047 140.854L231.048 157.096L216.059 154.329L219.058 138.087L234.047 140.854ZM216.059 154.329L213.061 170.57L198.072 167.803L201.07 151.561L216.059 154.329ZM201.07 151.561L186.081 148.794L189.08 132.552L204.069 135.32L201.07 151.561ZM186.081 148.794L183.083 165.036L168.093 162.268L171.092 146.027L186.081 148.794ZM168.093 162.268L165.095 178.51L150.106 175.743L153.104 159.501L168.093 162.268ZM183.083 165.036L198.072 167.803L195.073 184.045L180.084 181.278L183.083 165.036Z" fill="white"/>
<path d="M391.431 213.128L300.223 196.29L296.773 214.974L387.982 231.812L391.431 213.128Z" fill="black"/>
<path d="M408.675 198.516L289.333 176.483L285.702 196.151L405.044 218.184L408.675 198.516Z" fill="black"/>
<path d="M426.645 185.055L277.354 157.493L273.723 177.161L423.014 204.722L426.645 185.055Z" fill="black"/>
<path d="M445.251 168.152L266.01 135.061L261.925 157.187L441.166 190.278L445.251 168.152Z" fill="black"/>
<path d="M413.287 173.945L410.288 190.187L395.299 187.419L398.298 171.178L413.287 173.945ZM395.299 187.419L392.301 203.661L377.312 200.894L380.31 184.652L395.299 187.419ZM380.31 184.652L365.321 181.885L368.32 165.643L383.309 168.41L380.31 184.652ZM365.321 181.885L362.323 198.127L347.333 195.359L350.332 179.118L365.321 181.885ZM347.333 195.359L344.335 211.601L329.346 208.834L332.344 192.592L347.333 195.359ZM362.323 198.127L377.312 200.894L374.313 217.136L359.324 214.368L362.323 198.127Z" fill="white"/>
</svg>
